# xmcd
#
# Track frame offsets: 
#        150
#        10677
#        26209
#        40084
#        54460
#        66422
#        81639
#        94881
#        106149
#        116487
#        126144
#        141260
#        154115
#        167873
#        183247
#        196174
#        207282
#
# Disc length: 3045 seconds
#
# Revision: 2
# Processed by: cddbd v1.5.2PL0 Copyright (c) Steve Scherf et al.
# Submitted via: ExactAudioCopyFreeDBPlugin 1.0
#
DISCID=ec0be311
DTITLE=Various Artist - Pure Crooners CD2
DYEAR=2010
DGENRE=Pop
TTITLE0=Jim Reeves - He'll Have To Go
TTITLE1=Harry Belafonte - Try To Remember
TTITLE2=Frank Sinatra - The Girl That I Marry
TTITLE3=Anthony Newley - What Kind Of Fool Am I
TTITLE4=Eddy Arnold - Make The World Go
TTITLE5=Louis Armstrong - Mack, The Knife
TTITLE6=Jerry Vale - Promises, Promises
TTITLE7=Bobby Vinton - Blue On Blue
TTITLE8=Neil Sedaka - Oh! Carol
TTITLE9=Frankie Laine - I Believe
TTITLE10=Tony Martin - Stranger In Paradise
TTITLE11=The Browns - The Three Bells
TTITLE12=Mac Davis - Baby, Don't Get Hooked On Me
TTITLE13=Johnny Nash - Cupid
TTITLE14=Georgie Fame - Because I Love You
TTITLE15=Engelbert - Please, Release Me
TTITLE16=Julio Iglesias - Volver A Empezar (Begin The Beguine)
EXTD=
EXTT0=
EXTT1=
EXTT2=
EXTT3=
EXTT4=
EXTT5=
EXTT6=
EXTT7=
EXTT8=
EXTT9=
EXTT10=
EXTT11=
EXTT12=
EXTT13=
EXTT14=
EXTT15=
EXTT16=
PLAYORDER=
